<svg width="1920" height="1080" viewBox="0 0 1920 1080" xmlns="http://www.w3.org/2000/svg"><path d="M1920,1080C1640.8333333333333,1117.5,281.6666666666667,1106,0,1080C-281.6666666666667,1054,150.5,926.8333333333334,230,924C309.5,921.1666666666666,395.5,1085.8333333333333,477,1063C558.5,1040.1666666666667,640.5,794.6666666666666,719,787C797.5,779.3333333333334,869.8333333333334,1021,948,1017C1026.1666666666667,1013,1107.1666666666667,784,1188,763C1268.8333333333333,742,1351.8333333333333,875.6666666666666,1433,891C1514.1666666666667,906.3333333333334,1593.8333333333333,823.5,1675,855C1756.1666666666667,886.5,2199.1666666666665,1042.5,1920,1080C1640.8333333333333,1117.5,281.6666666666667,1106,0,1080" fill="#a1a1aa"/></svg>