<svg width="1920" height="1080" viewBox="0 0 1920 1080" xmlns="http://www.w3.org/2000/svg"><path d="M1920,1080C1600.3333333333333,1099.3333333333333,284.8333333333333,1130.6666666666667,0,1080C-284.8333333333333,1029.3333333333333,140.16666666666669,792.6666666666666,211,776C281.8333333333333,759.3333333333334,354.1666666666667,965.3333333333334,425,980C495.8333333333333,994.6666666666666,566.1666666666666,864.6666666666666,636,864C705.8333333333334,863.3333333333334,772.8333333333334,989.8333333333334,844,976C915.1666666666666,962.1666666666666,990.8333333333334,797.3333333333334,1063,781C1135.1666666666667,764.6666666666666,1206.5,867.3333333333334,1277,878C1347.5,888.6666666666666,1416,830.6666666666666,1486,845C1556,859.3333333333334,1625,944.1666666666666,1697,964C1769,983.8333333333334,1880.8333333333333,944.6666666666666,1918,964C1955.1666666666667,983.3333333333334,2239.6666666666665,1060.6666666666667,1920,1080C1600.3333333333333,1099.3333333333333,284.8333333333333,1130.6666666666667,0,1080" fill="#a1a1aa"/></svg>